<svg width="51" height="50" viewBox="0 0 51 50" fill="none" xmlns="http://www.w3.org/2000/svg">
<g id="Interface essential/Email-2">
<path id="Icon" fill-rule="evenodd" clip-rule="evenodd" d="M13.0001 8.33331H38.0001C42.6025 8.33331 46.3334 12.0643 46.3334 16.6666V35.4166C46.3334 40.019 42.6025 43.75 38.0001 43.75H13.0001C8.39771 43.75 4.66675 40.019 4.66675 35.4166V16.6666C4.66675 12.0643 8.39771 8.33331 13.0001 8.33331ZM28.4167 28.2291L41.6251 18.4375C42.2145 18.0041 42.3447 17.1767 41.9167 16.5833C41.7127 16.3 41.4027 16.1113 41.0573 16.0603C40.712 16.0093 40.3606 16.1003 40.0834 16.3125L26.7292 26.0416C26.3951 26.3919 25.9321 26.5901 25.448 26.5901C24.9639 26.5901 24.5009 26.3919 24.1667 26.0416L10.9167 16.3125C10.6409 16.1069 10.2944 16.0199 9.95415 16.0708C9.6139 16.1216 9.30799 16.3061 9.10425 16.5833C8.67179 17.1713 8.79251 17.9977 9.37508 18.4375L22.5001 28.125C23.3168 28.8998 24.3953 29.3386 25.5209 29.3541C26.5928 29.3539 27.6258 28.9526 28.4167 28.2291Z" fill="#11A3AE"/>
</g>
</svg>
