<svg width="51" height="50" viewBox="0 0 51 50" fill="none" xmlns="http://www.w3.org/2000/svg">
<g id="Interface essential/Linkedin">
<path id="Icon" fill-rule="evenodd" clip-rule="evenodd" d="M37.9468 35.3688C37.9501 35.7815 37.8173 35.9001 37.4157 35.8907C36.2751 35.8688 35.1343 35.8517 33.9954 35.897C33.4236 35.9204 33.2515 35.772 33.2593 35.1768C33.2939 32.6126 33.2718 30.047 33.2765 27.4815C33.2765 26.7784 33.2298 26.0815 32.9718 25.4188C32.5343 24.3001 31.7797 23.5424 30.5282 23.4329C29.1968 23.3157 28.2298 23.922 27.5767 25.0456C27.1486 25.7815 27.0501 26.6032 27.0517 27.4438C27.0579 30.036 27.0376 32.6267 27.0672 35.2173C27.0751 35.7753 26.9047 35.9142 26.3703 35.8954C25.2312 35.8563 24.0906 35.8659 22.9501 35.8924C22.5126 35.9032 22.3797 35.772 22.3797 35.3282C22.3939 29.9907 22.3922 24.6532 22.3829 19.3159C22.3829 18.9331 22.4611 18.761 22.8922 18.7706C24.1093 18.797 25.3281 18.797 26.5453 18.7706C26.9672 18.7628 27.0781 18.9157 27.0609 19.3096C27.0343 19.9487 27.0547 20.5892 27.0547 21.3954C28.8595 19.1642 31.0328 18.4315 33.6142 18.9518C36.1142 19.4563 37.8343 21.7065 37.9062 24.7206C37.9906 28.2673 37.9282 31.8188 37.9468 35.3688ZM16.9392 16.7846C15.425 16.7813 14.2406 15.5813 14.2439 14.0565C14.2468 12.5501 15.4673 11.3221 16.9547 11.3251C18.4439 11.3298 19.6532 12.5626 19.6486 14.0704C19.6453 15.5987 18.4579 16.7876 16.9392 16.7846ZM18.6142 35.897C17.4765 35.8517 16.3345 35.8688 15.1954 35.8907C14.7875 35.8987 14.6033 35.8235 14.6047 35.3485C14.6204 30.0142 14.6187 24.6815 14.6062 19.347C14.6047 18.919 14.7079 18.7579 15.164 18.7706C16.3283 18.8001 17.4953 18.8081 18.6579 18.7673C19.1937 18.7485 19.2922 18.947 19.2892 19.4313C19.2689 22.072 19.2797 24.7126 19.2797 27.3548C19.2797 29.9688 19.2642 32.5846 19.2908 35.2001C19.297 35.7313 19.175 35.919 18.6142 35.897ZM44.0797 12.5784C43.9734 11.7298 43.9593 10.8563 43.4906 10.0971C41.9736 7.63619 39.8797 6.23447 36.8781 6.25025C29.2845 6.28932 21.6908 6.25025 14.0968 6.27682C12.9564 6.27979 11.7829 6.31729 10.747 6.92979C8.21872 8.42666 6.73434 10.5188 6.75012 13.586C6.78591 21.2049 6.75012 28.8235 6.77497 36.4438C6.77966 37.5173 6.79544 38.6407 7.35778 39.6079C8.68591 41.8956 10.4361 43.594 13.3109 43.5829C13.3937 43.5829 13.4579 43.622 13.5267 43.6579H37.472C37.6048 43.5392 37.7673 43.5985 37.9173 43.5798C38.7781 43.472 39.6673 43.4673 40.4312 42.9735C42.5672 41.5923 44.1375 39.8532 44.0892 37.1048C44.0892 37.0563 44.1234 37.0128 44.1595 36.9721V13.0268C44.0531 12.8909 44.0984 12.7298 44.0797 12.5784Z" fill="#11A3AE"/>
</g>
</svg>
